<svg fill="#FF8158" xmlns="http://www.w3.org/2000/svg" xmlns:xlink="http://www.w3.org/1999/xlink" xml:space="preserve" version="1.1" style="shape-rendering:geometricPrecision;text-rendering:geometricPrecision;image-rendering:optimizeQuality;" viewBox="0 0 1.063 0.99" x="0px" y="0px" fill-rule="evenodd" clip-rule="evenodd"><defs><style type="text/css">
   
    .fil0 {fill:#FF8158;fill-rule:nonzero}
   
  </style></defs><g><path class="fil0" d="M0.502 0.98c-0.097,-0.072 -0.189,-0.146 -0.269,-0.229 -0.082,-0.086 -0.151,-0.181 -0.201,-0.292 -0.042,-0.093 -0.041,-0.196 -0.007,-0.281 0.019,-0.049 0.05,-0.092 0.091,-0.124 0.041,-0.032 0.092,-0.052 0.15,-0.054 0.078,-0.002 0.168,0.028 0.265,0.105 0.098,-0.077 0.188,-0.107 0.266,-0.105 0.058,0.002 0.109,0.022 0.15,0.054 0.04,0.032 0.071,0.075 0.091,0.124l0 0c0.034,0.085 0.035,0.188 -0.007,0.281 -0.051,0.111 -0.12,0.206 -0.201,0.292 -0.08,0.084 -0.172,0.158 -0.27,0.23 -0.018,0.013 -0.042,0.012 -0.058,-0.001zm-0.199 -0.296c0.068,0.071 0.145,0.135 0.228,0.198 0.083,-0.063 0.161,-0.127 0.229,-0.198 0.074,-0.078 0.137,-0.164 0.183,-0.265 0.031,-0.068 0.03,-0.143 0.005,-0.205l0.001 0 -0.001 0c-0.013,-0.034 -0.034,-0.063 -0.06,-0.084 -0.026,-0.02 -0.058,-0.032 -0.094,-0.034 -0.063,-0.002 -0.141,0.029 -0.23,0.108 -0.018,0.016 -0.046,0.017 -0.065,0 -0.089,-0.079 -0.167,-0.11 -0.23,-0.108 -0.036,0.002 -0.068,0.014 -0.094,0.034 -0.026,0.021 -0.047,0.05 -0.061,0.084 -0.024,0.062 -0.025,0.137 0.006,0.205 0.045,0.101 0.108,0.187 0.183,0.265z"></path></g></svg>